<svg width="434" height="274" viewBox="0 0 434 274" fill="none" xmlns="http://www.w3.org/2000/svg">
<circle cx="340.5" cy="180.5" r="93.5" fill="#E7E7E7"/>
<rect x="176" y="142" width="167" height="132" fill="#E7E7E7"/>
<path fill-rule="evenodd" clip-rule="evenodd" d="M327 93.5C327 97.541 326.744 101.522 326.246 105.429C349.158 122.47 364 149.752 364 180.5C364 231.638 322.947 273.187 272 273.988V274H270.5H93.5H91V273.967C40.5171 272.642 0 231.303 0 180.5C0 128.861 41.8613 87 93.5 87C110.505 87 126.449 91.5391 140.188 99.4727C140.106 98.1807 140.051 96.8818 140.023 95.5762C140.008 94.8857 140 94.1934 140 93.5C140 41.8613 181.861 0 233.5 0C285.139 0 327 41.8613 327 93.5Z" fill="#F6F6F6"/>
</svg>
